<svg width="32" height="32" viewBox="0 0 32 32" fill="none" xmlns="http://www.w3.org/2000/svg">
<path d="M23.458 7C23.4881 7.00337 25.481 7.22951 28.084 8.1875C31.051 9.27722 31.9826 9.98863 31.9961 9.99902C31.8725 12.5684 29.5831 14.8838 26.0762 16.4258C29.5855 17.9678 31.8765 20.2843 32 22.8545C31.9836 22.8671 31.0503 23.5761 28.0879 24.665C25.4828 25.6233 23.4915 25.8483 23.4619 25.8516L23.4717 20.1279C23.4717 19.2709 23.1275 18.3957 22.4766 17.6221C20.4917 18.1023 18.2987 18.3745 15.998 18.375H15.9961C13.698 18.3745 11.5074 18.1033 9.52441 17.624C8.87497 18.3971 8.53223 19.2718 8.53223 20.1279L8.54297 25.8516C8.54297 25.8516 6.53978 25.6305 3.91602 24.665C0.939252 23.5705 0.00987206 22.8598 0.00292969 22.8545C0.126931 20.2854 2.41601 17.9688 5.92285 16.4268C2.41458 14.8848 0.124046 12.5692 0 9.99902C0.0132279 9.98885 0.944596 9.27743 3.91211 8.1875C6.5187 7.22844 8.51094 7.00293 8.53711 7L8.52832 12.7246C8.52839 13.5814 8.87233 14.4559 9.52246 15.2295C11.5075 14.7491 13.701 14.4784 16.002 14.4775C18.2997 14.4783 20.4907 14.7493 22.4736 15.2285C23.1235 14.4552 23.4677 13.5811 23.4678 12.7246L23.458 7ZM15.9355 15.1406C13.8572 15.1406 12.1628 15.6499 10.9219 16.4277C12.1623 17.2044 13.8551 17.7129 15.9307 17.7129H16.0645C18.1424 17.7128 19.8362 17.2028 21.0771 16.4248C19.8365 15.6486 18.1437 15.1407 16.0684 15.1406L16.002 15.1387H16L15.9355 15.1406Z" fill="black"/>
</svg>
