<svg width="32" height="32" viewBox="0 0 32 32" fill="none" xmlns="http://www.w3.org/2000/svg">
<path d="M17.4424 28.9697L17.4023 29.2129L17.2803 29.2529L17.3213 29.416L17.2402 29.4961V29.8984C17.2802 30.0609 17.2802 30.2229 17.2402 30.3027L16.8779 30.626C16.9548 30.8763 17.0085 31.1334 17.0391 31.3936L16.1104 32L16.1504 31.3936L16.2305 31.3535L16.1904 31.2324L16.7148 31.3535V31.1914L16.3115 31.0303V30.8682L16.5127 30.667C16.5934 30.5854 16.6347 30.4667 16.6348 30.3027L16.5537 30.1816L16.5137 29.9385H16.5537L16.6348 29.5752H16.7148L17.0381 28.6475L17.4424 28.9697ZM12.3135 27.4746L12.3945 28.5234L12.5156 28.6465V28.8076L12.7588 28.9287L12.7988 29.2529L13.001 29.4141L13.1621 29.6963L13.4854 29.5352V29.4941H13.6865L13.7266 29.6572V29.8984L13.5654 29.9404L13.4844 30.1016L13.4434 30.2246C13.6457 30.1838 13.6854 30.1426 13.6455 30.1426L13.7266 29.9814L13.8877 29.8984C13.8063 29.8596 13.8065 29.8594 13.9688 29.8594C14.0495 29.8594 14.0895 29.8987 14.0088 29.9404L14.0898 29.9814C14.1306 30.143 14.1305 30.3871 14.0498 30.708L13.8066 30.6689L13.6445 30.6279L13.5234 30.4658H13.4424L13.3613 30.2227H13.0391C12.8776 30.1818 12.7152 29.979 12.5537 29.5752L12.1504 29.6963L12.0693 28.8486L11.9893 28.7666L12.0283 28.6855V28.6465C11.9478 28.6055 11.9071 28.485 11.8672 28.2422L11.7061 27.4746L11.625 27.3525C11.625 27.3108 11.6253 27.2715 11.668 27.2715L12.3135 27.4746ZM20.5137 29.8154V30.0986C20.2309 30.2618 20.0284 30.3013 19.9883 30.2598C19.9075 30.2189 19.9076 30.0573 20.0283 29.7334L20.5137 29.8154ZM19.1387 16.2031L19.9473 16.3652C20.0688 16.4451 20.2303 16.6065 20.4316 16.8486H20.5957V16.7285C20.6365 16.7285 20.6768 16.6863 20.6768 16.6455H20.9189L21.1211 16.7285V17.0498L20.7578 17.0107V17.1729L21.2422 17.5352L21.3232 17.7783L21.7676 18.3037C21.889 18.506 21.9702 18.7906 22.0908 19.1914C22.1716 19.636 22.2116 20.0012 22.1309 20.3242L21.9277 20.6074L21.9688 20.6885V20.7295L21.7266 21.6982L21.5244 21.9414V22.3867L21.4033 22.4268L21.2832 23.6396C21.2424 24.125 21.1617 24.4883 21.041 24.7314L20.8789 24.6494C20.8381 24.4879 20.8389 24.2438 20.8389 23.8818L20.7988 23.7998L20.7578 23.7588L20.6768 23.7998H20.6367V24.7295L20.8389 25.0127V25.2148L21.2021 25.1348V25.4561L20.959 25.7002L20.8379 26.71L20.7568 26.749V27.2744L20.6357 27.3555V28.2842L20.5156 28.3232L20.4746 28.7676V28.8906L20.4336 28.9697V29.1738L20.6768 29.5352L20.5156 29.6982H20.2725L20.2324 29.5762H20.0703L20.0312 29.2139L20.0703 29.1328L20.1113 28.9697L20.0312 28.6084C19.9589 28.457 19.9446 28.2842 19.9912 28.123L20.1934 27.8818C20.2342 27.6787 20.2744 27.4352 20.2744 27.1523V26.3838L20.6777 26.2217V26.0195L20.4346 25.9375C20.354 25.9375 20.2738 25.8583 20.2734 25.8174C20.2335 25.6967 20.2334 25.4951 20.2334 25.252L20.2734 24.6865L20.3945 24.6455C20.4753 23.9197 20.5162 23.3935 20.4346 23.1504L20.2734 22.8291H20.1924L20.1514 22.708L20.1924 22.667C20.1516 22.5853 20.1925 22.5851 20.2324 22.626V22.5049C19.9494 22.3044 19.7879 22.1422 19.7471 22.0605L19.7881 21.5752C19.8279 21.4546 19.7876 21.373 19.666 21.373V21.4951H19.4639V21.334L19.666 21.1709L19.707 20.9678C19.7876 20.807 19.7881 20.4841 19.7881 19.999L19.666 20.04L19.5049 21.0498H19.3018L19.1807 20.6465L19.0996 20.6055V20.4033L18.8975 20.2402L18.7764 19.8379L18.6143 19.7969V19.4746L18.8164 19.3135L18.8975 19.0312L18.7764 18.9102V18.749L18.8164 18.626L18.6953 18.4229L18.6143 18.1816L18.9785 17.8574C19.0999 17.6553 19.1396 17.455 19.1396 17.252C19.1396 17.0905 19.0999 16.9306 18.9785 16.7275L18.7363 16.2422V16.0391L19.1387 16.2031ZM17.8076 27.9971C17.8882 27.9971 17.9286 28.0374 17.9287 28.0781V28.2002L17.9688 28.2812L18.0488 28.3203L18.0889 28.4844V28.6055L17.9678 28.7266L17.8867 28.8486L17.6035 28.9287L17.8057 28.4043V28.3223L17.7656 28.0811V27.9971H17.8076ZM12.5986 6.38574L12.8408 6.50684L12.8008 6.62695V6.74805H13.2451V6.87012L12.4355 7.23242L12.5156 7.27344L12.6367 7.31348L13.001 7.11133C12.9202 7.0714 13.0009 7.07129 13.2432 7.07129H13.2832V7.27344L13.0801 7.43457L13 7.79883H13.1201L13.2422 7.83887L13.2822 7.95996L13.3623 8.04004H13.7256L13.7666 7.91895C13.928 7.91898 14.009 7.95932 14.0498 8.04004L14.0898 8.36328H14.2529V8.04004L14.4141 7.91895C14.6704 7.91969 14.9217 7.98946 15.1416 8.12109L15.748 8.52441L16.1914 8.64648L16.3535 8.84863L16.0703 9.05078H15.8682L15.7061 9.45508H15.8682L15.9883 9.29297L16.2715 9.25293L16.3115 9.13184H16.5537L16.6348 9.25293L16.7549 9.37402C16.9164 9.89939 16.8758 10.1822 16.5527 10.3438L16.1494 10.4648L16.0684 10.667H15.9072L15.584 10.9502V11.0312L15.7461 11.0703L15.9082 11.1514H16.1104L16.1504 10.7881L16.4727 10.707C16.392 10.9501 16.3928 11.2328 16.4336 11.5557C16.4744 11.8785 16.5552 12.121 16.6758 12.3232L16.3926 12.4033H16.0693L15.4629 12.6455L15.4229 12.7266L14.9385 12.8486V12.9287L15.0195 13.0098L15.1807 13.0498L15.7061 12.7666L16.5547 12.6855C16.5947 12.7816 16.6152 12.8852 16.6152 12.9893C16.6152 13.0932 16.5946 13.1961 16.5547 13.292L16.7568 13.333C16.8376 13.3729 16.879 13.3723 16.9189 13.4131C16.9588 13.5344 16.9586 13.6154 16.9189 13.5752L16.8379 13.6963L16.4336 13.7773C16.3121 13.8181 16.1913 13.8586 16.1514 13.8994L16.1113 14.1016H16.3535L16.4336 13.9795L16.5547 13.8584C16.757 13.8185 16.879 13.8581 16.9189 14.0205C16.9189 14.1013 16.9188 14.2628 16.8789 14.5459L17.04 14.5859L17.0801 14.0605L17.2412 14.0205L17.2812 14.1016H17.3223V14.5049C17.403 14.5049 17.4434 14.546 17.4434 14.5859H17.5645L17.6084 14.752L17.4463 15.3174H17.4863C17.4459 15.3571 17.4868 15.3574 17.5674 15.3574L17.6885 15.1152L17.8096 15.1543L17.7695 15.5176L17.8096 15.5986L17.8496 15.7197L17.8096 15.7607L17.7695 15.8818L17.8506 16.0029L18.0117 16.084L18.0928 16.2861L18.1738 16.5293L18.376 16.9326L18.4561 17.0947L18.4961 17.2559L18.416 17.5391L18.335 17.6201C18.2533 17.7018 18.1725 17.7422 18.0918 17.7422L18.0518 17.7021L17.9707 17.6611L18.0117 17.6201L17.8096 17.458L17.8496 16.8926V16.8516L17.9697 16.2861L17.8896 16.2051H17.7686L17.6885 16.8506V16.8916L17.6484 16.9736L17.5674 17.0537V17.5801L17.4453 17.6191V17.8213L17.2432 18.1865L17.5664 18.3477L17.4854 18.5508C17.6069 18.5508 17.6475 18.5918 17.6475 18.6309V19.0342L17.8086 19.0742V18.7529L17.9697 18.833L18.0508 19.2773C18.0508 19.4369 18.011 19.5598 17.8896 19.6396L17.5664 19.8027L17.3643 19.5195H17.3242L17.2432 19.3984H17.123L17.042 19.0742L16.8398 18.9131L16.7178 18.4277L16.3945 18.1865L16.3145 17.457L16.0312 17.5381L15.8701 17.416V17.2549L15.627 17.2139C15.627 17.2139 15.6669 17.2541 15.627 17.2949V17.377L15.749 17.416C15.9105 17.7009 16.0323 17.9422 16.0723 18.1445V18.6279L16.1523 19.0322L16.3555 19.2344L16.3945 19.4785L16.5566 19.5195V19.6396L16.8799 19.8428V19.9658L17.1221 20.0859L17.2832 20.207C17.324 20.2887 17.3242 20.5327 17.3242 20.9746H17.4854V20.3701L17.5664 20.3291L17.6064 20.248L17.7676 20.3701L17.6064 20.0869L17.6465 19.9258L17.8486 19.8428L18.2129 20.4082L18.374 20.8125C18.3343 20.8533 18.374 20.8932 18.5352 20.8525V20.5713L18.415 20.4482L18.0508 19.7627L18.374 19.4385V19.5605L18.415 19.6406H18.5352L18.6162 20.2061L18.8184 20.4082L18.8584 20.5723L18.8984 20.7344L19.1406 21.1377V21.3398H19.2617C19.3025 21.5812 19.2611 21.7436 19.0996 21.8643L19.0586 21.9053H18.5742L18.332 21.1768L18.0098 20.7344V20.5723C17.968 20.491 17.8871 20.4915 17.7666 20.5322V20.6113L17.8066 20.6523L18.0088 21.1377V21.1768C17.9272 21.2584 17.8463 21.3778 17.7656 21.5801L17.6445 22.1064L17.6846 22.2686V22.3096L17.8057 22.792L17.5635 23.4395L17.4424 23.4805V23.7236L17.3213 23.7627L17.2402 24.3301L17.4023 24.2891L17.4834 24.0869V23.8037H17.6436L17.8047 24.4912L17.7646 24.6123V24.7344L17.9668 25.0977V25.4189L18.1689 26.1064C18.2098 26.228 18.1688 26.4308 18.1289 26.7529C18.0881 27.0365 18.0077 27.2368 17.9668 27.3584L17.7646 27.5205L17.7256 27.6426L17.6445 27.7227H17.4424L17.3213 26.3486L17.1191 25.8652L17.0381 25.8242L16.9971 25.502C16.9573 25.3797 16.9576 25.2996 16.877 25.2588V25.2188L17.0381 25.1387L17.1592 24.7734L17.3203 24.8965L17.3604 25.0576L17.3203 25.2197L17.5625 25.4629V25.667L17.6436 25.707V26.1113L17.8047 26.1914L17.7646 26.7969L17.8857 26.7559L18.0078 26.6348C18.0477 26.4734 18.0474 26.3136 17.9668 26.1504L17.8047 25.9873L17.7646 25.8672L17.8047 25.4629C17.8044 25.3438 17.6844 25.0599 17.4824 24.5752H17.4424L17.4023 24.5361L17.3623 24.6162C17.3215 24.6569 17.2801 24.6562 17.2402 24.6562V24.5361L17.0791 24.4951L16.918 24.6973V25.0605L16.8369 25.1016V25.3838L16.7148 25.4238V26.3135L16.918 26.5957C16.9578 26.7172 16.9176 26.7975 16.8369 26.959L16.7559 27.2021L16.8779 27.2832C16.9587 27.363 16.9582 27.5645 16.7559 27.8076L16.918 27.8486L16.958 27.6875H17.1191L17.3613 27.8896C17.5634 28.05 17.6443 28.2519 17.6445 28.332L17.4424 28.6562L17.1592 28.6152L17.0381 28.332L16.7949 28.2119L16.6338 28.0498V27.8887L16.1895 27.5244C16.311 27.4446 16.3506 27.3621 16.3506 27.3213C16.3107 27.2815 16.2709 27.2409 16.3105 27.2002C16.0683 26.9979 15.9872 26.7144 15.9473 26.3496H15.8672L16.0693 25.7051V25.502L16.1504 25.4619C16.1903 25.2206 16.1903 24.8556 16.1504 24.4111L16.0693 23.4014L15.9482 23.2393H15.8682L15.7871 23.5615H15.5449L15.4229 23.4004L15.1396 23.3594L14.8174 23.1562H14.6152L14.4121 22.9941L13.9277 22.2676L13.6445 22.0234L13.3613 21.2559L13.0391 20.9727V20.7725L12.958 20.7314V19.9639L12.8359 19.8818L12.7559 19.3164L12.5938 19.1553L12.3516 18.3867L12.1904 18.3047L12.0283 17.7402L11.9482 17.6992L11.8682 17.6172L11.9893 16.8896H12.1504L12.3926 17.2529L12.5537 17.2119L12.4326 16.9707L12.1904 16.7266V16.5244L11.9883 16.0791L11.8672 15.2715L11.7861 15.1514V14.9082L11.665 14.8271L11.7051 14.7061C11.7089 14.7019 11.7424 14.6636 11.7051 14.626L11.584 13.9795C11.4624 13.7375 11.2609 13.6969 11.0586 13.8584V13.8994L10.8164 14.1816L10.8975 14.9902H11.0186V15.2734L11.0996 15.3545L11.2607 16.2832L11.4229 16.4453L11.5029 17.0117L11.7061 17.2539L11.7861 17.6982L11.8672 17.7393C11.9069 17.7803 11.8668 17.9407 11.7861 18.1836H11.665L11.5029 17.4551L11.3418 17.334L11.2607 16.6865L10.9395 16.0801L10.8584 15.3945L10.6162 14.748L10.5352 14.708H10.2119L10.1318 14.5469H9.80859L9.88965 14.4248L9.92871 14.2637H9.76758L9.72754 14.4248H9.56641L9.2832 14.1826V14.0615L9.64648 13.9805C9.72703 13.9397 9.72754 13.9001 9.72754 13.8594V13.7783L9.08105 14.1016L9 14.0605L9.16113 13.5762V13.293L9.56543 12.9297V12.7686H9.72656V12.6875L10.0898 12.4043V11.8789C10.1307 11.596 10.291 11.3537 10.4932 11.1523L11.1396 10.627V10.3438L10.7354 10.5059L10.6963 10.3438L10.332 10.1416C10.1705 10.02 10.0898 9.89802 10.0898 9.77734L10.1309 9.49512L10.2109 9.29199L10.1709 9.13086C10.131 9.09003 10.1704 9.04962 10.292 9.00879L10.373 9.13086L10.333 9.5752L10.4941 9.65625L10.6152 9.45508L10.4941 9.09082V8.76758C10.5341 8.68679 10.6954 8.5257 10.9385 8.36426L11.1035 8.20312L11.3457 8.24316L11.2646 7.71777V7.07227L11.3457 6.91016L11.4668 6.83008V6.70898L12.1943 6.34473L12.5986 6.38574ZM18.291 27.7549L18.251 28.2002L18.0889 28.1172V27.917L17.8867 27.8369V27.5518L18.0488 27.4727L18.291 27.7549ZM12.1504 18.6641L12.5156 19.4688L12.5967 19.5088L12.7178 20.2363L12.7988 20.3174V20.6006C12.7988 20.6822 12.7992 20.6823 12.7178 20.6416L12.5967 20.5205C12.5568 20.4377 12.5161 20.2377 12.4355 19.9951L12.1934 19.873V19.9951C12.1937 20.0355 12.2341 20.0352 12.3145 20.0352L12.1934 20.1973L11.9902 20.1582L12.0303 20.4004L12.3535 20.6025L12.3936 20.8457L12.5156 21.0479C12.5556 21.0895 12.636 21.0898 12.6768 21.0898L12.9189 21.0479L13.1611 21.4521V21.6543L13.5654 22.0986L13.6455 22.4209L14.0088 22.7432C14.0496 22.9046 14.0492 23.0248 13.9277 23.1064L13.7666 23.2285V23.3896L13.9277 23.3496L14.0898 23.2695L14.1289 23.0664L14.291 23.0254V23.1865L14.21 23.3105L14.0898 23.3896L14.0088 23.752L13.4434 24.3193H13.2822L13.1201 24.5615L12.6357 24.9248V25.0469L12.5156 25.0879L12.4756 25.249L12.4346 25.4111C12.3539 25.5725 12.3539 25.6543 12.4346 25.6543V26.5039L12.2334 27.1104L11.627 26.9873L11.668 26.4229L11.5869 26.3818L11.627 25.6133C11.5871 25.4927 11.5472 25.411 11.5869 25.3701L11.8701 24.8457L11.9902 24.0781L12.0713 23.9551L12.1523 23.2285L12.2334 22.7432L12.3535 22.6631V22.0977L12.5156 22.3799H12.5547L12.7168 22.4209H12.7578V22.2598L12.5547 22.1387L12.5156 22.0156V21.8945L12.2324 21.5713L12.1514 21.0879L11.9902 20.9268L12.0293 20.8438C12.0701 20.8438 12.0701 20.8436 12.0293 20.8027C11.9883 20.8017 11.908 20.6427 11.8682 20.4004C11.7874 20.1183 11.7464 19.9167 11.7871 19.835L12.0293 19.4717L11.9492 19.1504C11.9084 19.0298 11.8682 18.9088 11.8682 18.8271L11.9893 18.7471V18.5029L12.0693 18.4209L12.1504 18.6641ZM12.0693 25.9775C12.0693 26.3005 11.9887 26.5837 11.8672 26.7852L12.0693 26.8262L12.2314 26.543C12.2713 26.3982 12.2712 26.2453 12.2314 26.1006L12.0693 25.9775ZM11.9092 25.2939L12.2324 25.4141V25.2119L11.9893 25.0508L11.9092 25.2939ZM17.4434 21.2529L17.3223 21.4961L16.8779 21.9004C17.12 22.3856 17.2007 22.83 17.1201 23.2734L16.958 23.7578L16.998 23.9209L16.958 24.001L17.0391 24.083L17.1191 24.001V23.7578L17.3213 23.5547L17.4834 22.8281V22.667L17.4023 22.625L17.3213 22.1426L17.2402 22.0605L17.1602 21.8984L17.4023 21.8574V21.5361L17.6045 21.333L17.6855 21.292C17.6855 21.1306 17.6445 21.0902 17.6445 21.1328V21.0918H17.6045L17.4434 21.2529ZM19.5449 21.7773L19.584 22.3037L19.7061 22.5469C19.7615 22.6447 19.7759 22.7607 19.7461 22.8691L19.584 23.3936L19.4629 23.4756V23.6777L19.1396 24.0811L18.8975 24L18.8164 23.7969L18.7363 23.5938L18.7764 23.3906L18.6953 23.3496L18.5332 22.3818L18.6143 22.2617C18.6551 22.22 18.6956 22.1789 18.7373 22.1426H19.0596L19.3828 22.4248L19.4639 22.2627L19.2637 21.9443L19.4639 21.7773H19.5449ZM13.2822 23.1494L13.3223 23.4736C13.2926 23.5633 13.2842 23.6088 13.2822 23.5928V23.7168H13.3623L13.5244 23.5537L13.4844 23.1494H13.2822ZM14.1299 21.5723L14.292 21.6963L14.3311 22.0176V22.2607L14.7754 22.6641V22.8252H14.9365L15.0176 22.9883L15.2197 23.0293L15.4219 23.0693L15.3418 22.625C15.3368 22.5367 15.3651 22.4496 15.4219 22.3818L15.625 22.3018L15.665 22.2197L15.7451 22.1396C15.7859 22.1396 15.7858 22.1395 15.7051 22.0986L15.584 22.0576C15.261 22.0984 15.1398 22.3433 15.1797 22.7852L14.9375 22.6641L14.6953 22.3018L14.5342 21.9395H14.4941V21.7363L14.4541 21.5332L14.333 21.4521L14.1299 21.3701V21.5723ZM15.9482 22.3018C15.9482 22.3426 15.9081 22.3821 15.8682 22.4229V23.0693C15.9886 23.0286 16.0689 23.0291 15.9883 22.9883L16.1104 22.3818L15.9482 22.3018ZM20.6338 22.4619H20.3916L20.3115 22.6641C20.3921 22.6642 20.4315 22.7052 20.3916 22.7441H20.5947C20.9176 22.5047 20.9579 22.3818 20.6748 22.3818L20.6338 22.4619ZM18.251 21.6572C18.1304 21.8594 18.0491 22.0605 18.0889 22.2627H17.8057V22.1426C17.8057 22.1018 17.8468 22.1016 17.8867 22.1016C17.9357 21.8807 18.0033 21.6645 18.0889 21.4551L18.251 21.6572ZM16.3936 21.7363C16.3128 22.0574 16.3123 22.1783 16.4736 22.0986L16.7568 21.7363L16.8379 21.333V21.251L16.6758 21.1699L16.3936 21.7363ZM16.0684 20.8086V21.4541L15.9873 21.4951L15.9072 21.5752C15.8673 21.5752 15.8672 21.7366 15.8672 22.0186H15.9873L16.1895 21.5752V20.9688L16.3926 20.7676V20.6045L16.1895 20.5674L16.0684 20.8086ZM19.2637 21.9443L19.2217 21.9805L19.2617 21.9414L19.2637 21.9443ZM12.8379 21.4932L12.9189 21.5723C12.7974 21.6539 12.8785 21.6963 13.04 21.6963V21.4521L12.8379 21.3311V21.4932ZM14.4941 21.1309C14.4533 21.1309 14.494 21.1697 14.6553 21.292C14.6961 21.2103 14.7367 21.0074 14.8174 20.6455H14.6152L14.4941 21.1309ZM13.2822 20.8477C13.3636 20.8477 13.4033 20.8473 13.4033 20.7676L13.3633 20.6455H13.2422L13.2822 20.8477ZM20.0283 20.5654C19.9884 20.5654 19.9883 20.6043 19.9883 20.7266H20.1904L20.1494 20.5244C20.1494 20.4828 20.11 20.4426 20.0693 20.4424L20.0283 20.5654ZM13.2822 20.4033C13.3229 20.4435 13.3636 20.4031 13.4033 20.3643C13.4033 20.2835 13.322 20.2828 13.2422 20.2402L13.2822 20.4033ZM20.1494 19.9609H20.0693L20.1094 20.3242C20.2299 20.404 20.2702 20.4038 20.2305 20.3242L20.2715 19.9609L20.1904 19.8789L20.1494 19.9609ZM15.4629 18.8271L15.4229 19.4326L15.2617 19.7949L15.1396 19.877L15.0596 20.0391H15.2617L15.5449 19.7559H15.626C15.6659 19.674 15.7061 19.4733 15.7061 19.2295L15.7461 18.6641L15.625 18.624L15.4629 18.8271ZM13.2412 19.959H13.3623C13.4839 19.8764 13.4436 19.7583 13.2812 19.6758L13.2412 19.959ZM19.5439 19.5146L19.7051 19.7588C19.7857 19.6773 19.7861 19.5948 19.7861 19.5557L19.8672 19.3936L20.0293 19.7949H20.0693C20.0285 19.7949 20.069 19.8359 20.2305 19.8359C20.3112 19.7153 20.3112 19.6738 20.2305 19.6738L20.2705 19.5127L19.8662 19.1094L19.7861 18.7471L19.584 18.7051L19.5439 19.5146ZM16.7559 19.0273L16.959 19.4307L17.0391 19.4717L17.2402 19.5928V19.7949H17.0391L16.5137 19.3125V19.1094L16.3115 18.9062V18.624C16.2708 18.6644 16.2305 18.6233 16.2305 18.5029C16.2305 18.4213 16.2716 18.3418 16.3115 18.3418L16.7559 19.0273ZM13.7266 19.0703L13.4844 19.3145C13.4039 19.4349 13.4433 19.5164 13.5645 19.5166L13.6855 19.3545L13.7666 19.1523C13.8064 19.07 13.8063 19.0295 13.7266 19.0703ZM17.9678 17.8174V17.9814L18.0488 18.0195L18.2109 18.4639L18.332 18.9082V19.2295H18.291L18.2109 19.2705L18.1699 18.9902L18.0889 18.7471L17.8867 18.624L17.8467 18.4229L17.8066 18.1816L17.6855 18.1406L17.7266 17.8574L17.7656 17.6963L17.9678 17.8174ZM18.4131 18.3428H18.5332L18.5732 18.8672C18.614 19.0684 18.5731 19.1494 18.5332 19.1494L18.4131 18.6641C18.3326 18.4232 18.3723 18.3024 18.4131 18.3428ZM13.8467 18.7471C13.7255 18.8268 13.7667 18.8674 14.0088 18.9082L14.1709 18.7051C14.2516 18.6244 14.1712 18.5465 14.0498 18.5029L13.8467 18.7471ZM12.6348 18.1406L12.7158 18.3428H12.8369V18.0205L12.6348 17.8984V17.7783L12.5938 17.6963H12.4326L12.6348 18.1406ZM15.3428 16.8896C15.1005 17.4549 14.8977 17.778 14.6963 17.9404H14.5352L14.4541 18.0205L14.333 18.1426L14.3721 18.2227H14.5342L14.6152 18.1426C14.8573 18.0211 15.0188 17.9408 15.0596 17.8184L15.1396 17.6162L15.2207 17.5771V17.4141L15.4229 17.252V16.8896H15.3428ZM18.6143 16.4043L18.6953 16.6455L18.8164 16.7285L18.8574 17.293C18.8983 17.5761 18.8573 17.7385 18.8174 17.7793C18.8168 17.8181 18.7361 17.8583 18.6963 17.8584L18.4941 17.9404C18.535 17.7382 18.5742 17.496 18.5742 17.2529V17.0498C18.5334 16.6864 18.4935 16.4056 18.3721 16.2432L18.2109 16.1211L18.332 16.0391L18.6143 16.4043ZM14.4121 16.2812L14.6152 16.4844C14.6712 16.5817 14.7039 16.6907 14.7109 16.8027C14.718 16.9149 14.6986 17.0271 14.6553 17.1309L14.5342 17.1719V17.4111H14.6963C14.777 17.3721 14.8174 17.2508 14.8174 16.9688V16.4424L14.5342 16.0791H14.4121V16.2812ZM21.7656 16.2021C22.0886 16.1622 22.4118 16.3234 22.8564 16.6455H23.0176V17.1338C22.9776 17.296 22.8573 17.3369 22.6553 17.3369L22.4521 17.1338L21.9678 17.0127V16.8896L21.7656 16.8486L21.6846 16.7285L21.5635 16.8076L21.5225 16.8896H21.3613L21.0381 16.6074C21.078 16.4443 21.1183 16.4055 21.1582 16.4443L21.3613 16.4854V16.6074C21.2806 16.5666 21.2806 16.6077 21.3613 16.6875H21.5225V16.4854H21.4414L21.4824 16.3643V16.2822C21.5224 16.2423 21.6043 16.2022 21.7656 16.2021ZM14.0918 14.9082L14.2949 15.1514V15.3936L14.415 15.4746L14.4561 15.6758L14.4961 15.8779C14.6039 15.9773 14.7264 16.0595 14.8594 16.1211L15.2637 16.2822L15.5859 16.6455H15.627V16.9707C15.6668 17.0111 15.7076 17.0107 15.7881 17.0107L15.9492 17.0498L16.0703 17.2119L16.1904 17.1729V17.0107L15.3027 15.8789L15.2217 15.4746C15.1005 15.3942 15.0605 15.3944 15.1406 15.4746L15.0195 15.5557V15.7178L15.0605 15.8789C15.181 15.8391 15.2213 15.8787 15.1406 16.04C14.9795 15.9604 14.9397 15.9199 14.9795 15.9199L14.6152 15.7178V15.3945L14.5352 15.3135L14.4541 15.2734V14.9902L14.252 14.707L14.0918 14.7061V14.9082ZM21.8057 16.5244L21.9268 16.6865H22.249L22.5723 16.8896L22.6533 16.9307L22.6934 16.9717H22.7734L22.7334 16.8076H22.6943L22.6133 16.7275H22.5732L22.4121 16.6455L22.0889 16.4043L22.0078 16.3223H21.8057V16.5244ZM13.8877 15.1514V15.1914L14.0498 15.4746C13.9691 15.5145 14.0086 15.5146 14.1299 15.5146V15.2725L13.9277 15.1113L13.8877 15.1514ZM10.4941 12.9297C10.535 13.5358 10.4149 14.0218 10.1318 14.3848H10.333C10.3729 14.3439 10.373 14.3035 10.373 14.2627V14.1816L10.5752 13.9795L10.8174 13.8184V13.6172L10.6152 13.334V12.9697L10.4941 12.9297ZM13.8877 10.667L13.7266 10.627V10.7881L13.8877 10.8691L14.0498 10.9902L14.0088 11.1924H14.0068V11.3945C13.9669 11.5161 13.8851 11.5969 13.7236 11.6377L13.3203 11.7588L13.1172 11.5566L13.0781 11.4355L13.0381 11.3545H12.917L13.1592 12.4863H13.4424L13.6846 13.5771L13.8867 13.9805V14.2227L14.0488 14.3848L14.21 14.3447L14.251 13.9805L14.332 13.8994V13.4951L14.6953 13.293C14.7759 13.2124 14.8158 13.1717 14.7764 13.1318C14.7764 13.0911 14.7365 13.0509 14.6152 13.0508L14.5342 13.1318L14.4531 13.2529L14.332 13.334H14.1289C14.0891 13.3332 14.0501 13.2119 14.0898 13.0908L14.251 12.7676H14.4121L14.6152 12.6455L14.5342 12.4844L14.0898 12.4033L13.7666 12.1602L13.6855 12.1201V11.959L13.9277 11.9189L14.0498 11.6768L14.4531 11.5957V11.4346H14.292C14.1713 11.1524 14.1302 10.8689 14.2109 10.5459L14.0088 10.5059L13.8877 10.667ZM11.9082 13.6963L11.8271 13.8584C11.8272 13.9389 11.8687 13.9393 11.9893 13.8994L12.0693 13.7773C12.0693 13.6967 12.0287 13.6565 11.9082 13.6963ZM10.8184 13.4541L10.8994 13.5752L10.9395 13.6562L11.2217 13.6162V13.4541H11.0195L10.8984 12.7266L10.8174 12.6865C10.7775 12.6865 10.7363 12.6464 10.6973 12.6455L10.8184 13.4541ZM11.625 13.6162C11.8273 13.2525 11.8681 13.1713 11.666 13.252L11.5039 13.4541C11.4631 13.5757 11.5043 13.6162 11.625 13.6162ZM12.7969 12.3242C12.756 12.4856 12.6759 12.6871 12.5146 12.9697V13.1318L12.3525 13.335C12.231 13.2942 12.2311 13.3748 12.3926 13.5771L12.7568 13.0518V12.8496L12.8369 12.7686L12.959 12.3242H12.7969ZM12.1504 12.6865C11.9082 12.9696 11.9079 13.0902 12.0693 12.9688C12.15 12.9688 12.1904 12.8883 12.1904 12.8076C12.2312 12.6871 12.2311 12.6868 12.1904 12.7266C12.1904 12.6867 12.1902 12.6468 12.1504 12.6865ZM11.1816 12.6064C11.1816 12.7268 11.1818 12.7673 11.2217 12.7266C11.2624 12.6868 11.3017 12.6467 11.3018 12.5654V12.4033H11.2617L11.1816 12.6064ZM10.292 12.6465C10.3327 12.6465 10.3728 12.6062 10.373 12.5664C10.373 12.5265 10.3319 12.5264 10.292 12.5264V12.6465ZM10.333 12.3242H10.4941V12.2021C10.4941 12.1614 10.4545 12.1611 10.373 12.1611L10.333 12.3242ZM11.4248 11.7588L11.4648 11.9199C11.4241 11.9598 11.4641 11.9995 11.5039 11.96L11.625 12.1211H11.7871L11.8682 11.96V11.6768L11.626 11.5566L11.4248 11.7588ZM15.9482 11.6367L15.9082 11.7578L15.4229 11.8779L15.3018 11.8379L15.1797 11.7979L15.0186 11.959L14.9785 12.1201H15.2217L15.2627 12.04L15.3828 12L15.4229 12.1211H15.8682C16.2716 11.7575 16.3111 11.5959 15.9482 11.6367ZM12.3525 11.9189C12.3925 11.9189 12.3926 11.8778 12.3926 11.8379L12.3125 11.7578L12.3525 11.9189ZM14.7773 11.4746H14.9385L14.9785 11.3936L15.0186 11.2734L15.1797 11.2334L15.1396 11.0713L14.9785 11.1924L14.7764 11.1523L14.5352 11.0312L14.7773 11.4746ZM13.3213 11.1523H13.4844L13.5244 10.9902L13.3623 10.8691L13.3213 11.1523ZM15.2617 11.1514L15.4229 11.0703L15.2617 11.0312V11.1514ZM11.2217 10.7881L11.585 10.8691C11.7056 10.8691 11.7466 10.7877 11.625 10.667L11.2607 10.627L11.2217 10.7881ZM11.5859 8.48535L11.3428 8.52539C11.3427 8.44476 11.3016 8.40527 11.2617 8.40527L11.0195 8.64746L10.8984 8.72754L10.8174 8.80859C10.7775 8.93011 10.7775 9.0508 10.8174 9.25293L10.8984 9.65723H11.0195V9.73828L11.3027 9.98047L11.3838 10.2227L11.5039 10.4248H11.666L11.7061 10.2627C11.6654 10.2219 11.7056 10.1416 11.7861 9.98047L11.9072 9.89941L12.0684 9.77832L11.9883 10.1826L11.7861 10.4248L11.8672 10.5459L12.0693 10.708H12.3115L12.6348 10.2627L12.918 10.3027L13 10.1846L13.04 9.98145C13.2416 9.98151 13.2817 10.0227 13.2422 10.0625L13.5645 10.2646C13.7259 9.94167 13.8478 9.6994 13.8877 9.49707L14.21 9.53711L14.332 9.17383C14.3728 8.97258 14.3725 8.85059 14.292 8.81055L14.1299 8.85059V9.05273L14.0898 9.17383L13.8477 9.25391L13.5254 9.86035H13.4443L13.3223 9.49609L13.1201 9.33496C12.9986 9.2134 12.959 9.01106 12.959 8.64844H12.7969L12.7158 8.9707L12.3525 9.01074L12.1104 8.72754L11.7871 8.52539L11.707 8.40527L11.5859 8.48535ZM14.4121 10.626H14.5342L14.6953 10.4648C14.7761 10.424 14.776 10.3838 14.6553 10.3838L14.4121 10.3438V10.626ZM15.0186 9.57617L15.3828 9.77832V9.94043L15.7451 9.81836L15.7051 9.49512L15.0596 9.37402L15.0186 9.57617ZM13.2412 9.73828L12.959 9.77734L12.8369 9.69824V9.37402L12.959 9.33398L13.2412 9.73828ZM13.6855 8.76855H13.7256L13.7666 8.80859C13.8473 8.64723 13.8471 8.60645 13.7256 8.60645L13.6855 8.76855ZM11.585 7.83887L11.4639 8.00098L11.585 8.16309H11.666L11.7471 7.91992C11.7879 7.75853 11.7466 7.71783 11.666 7.71777L11.585 7.83887ZM12.0693 7.79785C12.0286 7.91914 12.0288 7.96016 12.0693 8H12.1904C12.3118 7.83772 12.2716 7.75794 12.0693 7.79785ZM12.4336 6.9502C12.5152 6.99101 12.5547 6.99102 12.5547 6.9502C12.514 6.90946 12.4741 6.87012 12.3936 6.87012L12.4336 6.9502ZM19.7461 1.97949L19.665 2.10156H19.4629L19.1797 1.69727C19.0582 1.49619 18.8967 1.41536 18.7354 1.45508L18.5732 1.6582C18.2507 1.90019 18.0486 2.10228 17.9678 2.26367V2.42676L17.6445 2.58887V2.75098H17.5635V2.83203C17.5261 2.86932 17.488 2.87193 17.4834 2.87207L17.4023 2.91211L17.1602 3.19434L16.6748 3.55859L16.5537 3.80078H16.3926L16.1504 4.12402L15.9082 4.24512L15.585 4.64844L15.2627 4.80957L14.4541 5.61719L14.0098 5.90039L13.8887 6.10156H13.7686L13.5654 6.38477H13.4443L13.3633 6.50586H13.1201L13.04 6.38477L13.4434 6.02148L15.4629 4.32422L15.9883 3.75781L16.2715 3.67773C16.3114 3.59702 16.392 3.51691 16.4736 3.39453L16.6758 3.11133H16.8369L17.0391 2.86914L17.4023 2.5459V2.42578H17.4834V2.26367L18.0088 1.89941V1.81836L18.0898 1.77832H18.1709L18.2119 1.65723V1.53516L18.4141 1.37402V1.29297H18.5342C18.6966 1.01084 18.6565 0.727582 18.4951 0.485352L18.333 0.365234V0.12207L18.5342 0H18.6963L19.7461 1.97949Z" fill="black"/>
</svg>
