<svg width="32" height="32" viewBox="0 0 32 32" fill="none" xmlns="http://www.w3.org/2000/svg">
<path d="M31.9656 20.5804C31.8392 20.4106 31.6354 20.3429 31.4946 20.2776C31.3567 20.2105 31.3766 20.0721 31.2613 20.0319C31.1435 19.993 30.9372 20.2406 30.7769 20.1891C30.6168 20.135 30.6286 19.8267 30.495 19.7812C30.358 19.7367 30.12 19.9679 29.9956 19.9268C29.8701 19.8894 29.8458 19.5654 29.7248 19.5243C29.6053 19.4866 29.3513 19.7169 29.2273 19.6773C29.1029 19.6342 29.095 19.3188 28.9567 19.272C28.8191 19.2284 28.5773 19.4642 28.4573 19.4215C28.3331 19.3822 28.3212 19.0674 28.1893 19.0217C28.0559 18.9779 27.8116 19.2091 27.6884 19.1675C27.5617 19.1253 27.5271 18.802 27.4116 18.7628C27.2936 18.7256 27.0636 18.9165 26.8762 18.9056C25.5768 18.7806 25.0797 17.9382 24.9912 18.1874C24.9045 18.4316 25.2622 19.0256 25.7116 19.2262C26.0702 19.3868 29.9408 20.4914 30.0423 20.5406C30.1411 20.591 30.3855 20.7032 30.2984 20.8485C30.164 21.0346 29.7858 20.8507 29.6896 20.7685C29.5923 20.6851 29.6144 20.6548 29.5231 20.6295C29.3157 20.5789 29.2007 20.9684 28.9813 20.9163C28.7815 20.8701 28.7956 20.4566 28.5929 20.4082C28.369 20.3523 28.2676 20.7443 28.0546 20.6933C27.8779 20.6521 27.8538 20.2309 27.6641 20.1839C27.4464 20.1295 27.3476 20.5226 27.1208 20.468C26.9257 20.421 26.9366 20.0101 26.7326 19.9595C26.5288 19.9098 26.3864 20.2908 26.1939 20.2457C26.0008 20.1995 25.9726 19.7798 25.8013 19.738C25.6256 19.6978 25.4876 19.9111 25.2517 19.9428C25.2517 19.9428 24.5746 20.1315 23.5041 18.979C22.4315 17.8289 21.9917 17.6055 21.3812 18.0739C20.3845 18.8391 19.7656 18.3333 19.5851 18.1058C19.3685 17.845 19.5953 17.6055 19.5953 17.6055C19.5953 17.6055 19.9118 18.1091 20.3103 18.1179C20.9524 18.1377 21.4366 17.2349 22.537 17.2188C23.931 17.1671 24.2944 17.6774 24.6753 17.7181C25.0283 17.7537 25.1461 17.695 25.3902 17.5487H25.389C25.5866 17.4764 25.7584 17.8698 25.9654 17.7907C26.1843 17.7055 26.0243 17.309 26.2599 17.2175C26.4803 17.1361 26.6242 17.5349 26.835 17.4539C27.0567 17.3703 26.9155 16.9628 27.1285 16.8834C27.3476 16.8018 27.4757 17.2045 27.7032 17.1185C27.9317 17.0347 27.7843 16.6311 27.9921 16.5499C28.2068 16.4692 28.362 16.8656 28.5728 16.7881C28.7726 16.7147 28.6584 16.2926 28.8662 16.2158C29.0822 16.136 29.2216 16.5337 29.4516 16.4466C29.6407 16.3786 29.5361 15.9561 29.7323 15.8796C29.9282 15.8041 30.11 16.1958 30.314 16.1171C30.5052 16.0445 30.3934 15.6246 30.5968 15.5461C30.8123 15.4661 30.9786 15.8576 31.1821 15.7837C31.3838 15.7091 31.2308 15.3704 31.4937 15.236C31.4937 15.236 31.8578 15.1126 31.8347 14.8372C31.8318 14.791 31.7566 14.2025 31.1572 14.0778C30.5805 13.9583 26.0281 15.256 25.9692 15.1812C25.5503 14.3278 25.0134 14.5652 24.9316 14.5841C24.8484 14.6061 24.3401 14.8289 23.7771 14.6061C22.6716 14.0903 21.789 15.4018 21.1835 15.2292C20.6259 15.0677 20.1997 15.1608 19.9658 15.2428C19.7518 15.3191 19.4048 15.6064 18.6694 15.3457C12.9852 13.3456 8.54271 15.0941 8.54271 15.0941C6.03793 15.9565 5.71739 15.0941 5.71739 15.0941C5.71739 15.0941 4.893 13.9401 10.6971 12.5637C19.0392 10.5886 19.291 7.32019 19.1922 7.11344C19.0552 6.81365 19.0029 7.16689 18.7283 7.49174C18.4978 7.76184 18.2297 7.62833 18.2297 7.62833C17.9673 7.49856 17.7993 7.80736 17.7993 7.80736C17.7993 7.80736 17.4617 8.34755 17.1631 8.04051C16.8761 7.74468 16.4952 8.41221 16.3528 8.43861C16.1823 8.4694 16.0991 8.38362 15.8705 8.27541C15.5278 8.11925 15.1599 8.7628 14.9716 8.80833C14.6833 8.87652 14.4808 8.45818 14.233 8.63458C13.4917 9.16244 13.3751 9.23568 13.1754 9.03048C13.0281 8.87498 13.0061 8.70672 12.511 9.19543C12.0896 9.61179 11.8879 9.68987 11.7187 9.42506C11.5445 9.15848 11.5893 8.79448 10.865 9.51084C10.5193 9.85285 10.3426 9.85945 10.1446 9.70571C9.99538 9.59024 9.99645 9.03927 9.47701 9.53811C9.00623 9.9868 8.66435 10.1836 8.53119 9.78511C8.38393 9.3373 7.82907 9.86759 7.70081 9.99251C7.56765 10.1172 7.28253 10.4474 7.08257 10.1067C6.88282 9.76377 6.40436 10.2756 6.11988 10.6002C5.90029 10.8525 5.72294 10.6578 5.49118 10.4977C5.22805 10.3117 4.43993 11.4455 4.36865 11.5132C4.29652 11.5779 4.24168 11.5132 4.06113 11.3555C3.7837 11.1131 3.03528 12.4601 2.91406 12.5478C2.91406 12.5478 2.86284 12.6642 2.65882 12.4634C2.36859 12.1788 0.827139 14.2698 0.245387 16.6357C-0.498768 19.6688 0.68693 21.9949 0.68693 21.9949C0.68693 21.9949 1.04311 22.0059 1.19484 21.758L1.42554 21.2218C1.6127 20.7749 1.91936 20.9154 1.91936 20.9154L1.19249 23.1454C1.07768 23.4391 1.14704 23.8545 1.40099 24.2473C1.64023 24.6419 1.80519 24.9087 1.99704 25.0922C2.58712 25.6649 2.52672 24.9875 2.54209 24.903C2.61123 24.5403 3.00092 24.8188 3.30673 24.9925C3.86181 25.3136 3.80013 24.6045 3.92178 24.3734C4.00629 24.2078 4.27923 24.2003 4.57545 24.4561C4.80593 24.6547 5.03534 23.9819 5.03534 23.9819C5.32302 22.5478 4.64694 22.382 4.28137 22.3609L3.54127 22.3261C3.54127 22.3261 3.58993 22.1079 3.66697 21.9036L3.70004 21.7589C4.50716 19.6859 3.1582 19.2858 2.75464 19.3188C2.30947 19.3597 2.34063 19.0674 2.34063 19.0674C2.34063 19.0674 4.77861 18.5726 4.32405 21.2374C4.32405 21.2374 4.23442 21.7015 4.18043 21.9434L4.85053 22.0241C5.42695 22.0983 5.52938 22.8012 5.52938 22.8012C5.52938 22.8012 7.65002 23.379 8.85279 23.1481C8.85279 23.1481 9.39037 23.0161 9.53954 22.6712C9.53954 22.6712 10.3185 20.7797 12.5926 20.6999C12.5926 20.6999 12.6726 20.9447 12.3092 21.0722C11.8738 21.2235 10.4222 21.3423 10.1207 23.0605V23.0673C10.0878 23.3493 10.1612 23.9498 10.7545 24.228C11.2603 24.4631 11.4382 25.412 11.5432 25.6682C11.8377 26.3955 12.2784 25.7003 12.2784 25.7003C12.2784 25.7003 12.558 25.113 12.7974 25.4388C13.2025 25.988 13.3907 25.7113 13.4827 25.3616C13.5834 24.9842 13.73 24.8194 14.1541 25.2784C14.335 25.4777 14.6906 25.3238 14.726 24.9828C14.8011 24.2322 15.293 24.8289 15.3635 24.8579C15.4478 24.8909 15.9629 24.7715 15.6746 23.9249C15.6746 23.9249 15.2851 23.1182 13.5292 22.7702C13.1173 22.6897 13.1829 22.3822 13.1829 22.3822L13.5695 22.4383C13.6848 22.4577 14.7059 22.5744 14.8148 22.5923C19.0979 23.0278 22.3479 21.5304 22.4456 21.4237C25.7727 22.0807 30.2969 21.8568 31.1463 21.5414C31.9999 21.2312 32.0635 20.7175 31.9654 20.5804H31.9656ZM25.0957 15.1084C25.1653 14.993 25.231 14.9276 25.2914 14.8962C25.5497 14.7449 25.7144 15.2184 25.683 15.2358C25.6815 15.2367 25.6756 15.2386 25.673 15.2397C25.6726 15.2404 25.6726 15.2422 25.6722 15.2428C25.6316 15.263 25.1335 15.4087 25.0844 15.3752C24.9858 15.3048 25.0957 15.1084 25.0957 15.1084ZM23.2041 15.2582C23.2041 15.2582 23.2681 15.1746 23.3927 15.1322C23.5157 15.086 23.7011 15.0783 23.947 15.2415C24.2297 15.4267 24.2225 15.5714 24.2225 15.5714C24.2107 15.5769 24.1987 15.5818 24.1864 15.5859C23.9815 15.6677 23.1407 15.774 23.1407 15.774C23.0927 15.6934 23.0729 15.5984 23.0844 15.5046C23.0959 15.4108 23.1381 15.3239 23.2041 15.2582ZM7.52283 11.0652C7.66411 11.1774 7.52881 11.8238 7.42808 11.7285L6.70206 11.3326C6.70206 11.3326 7.37814 10.9563 7.52283 11.0652ZM6.34204 11.478C6.48481 11.5876 6.351 12.2353 6.24985 12.139L5.52575 11.7424C5.52597 11.7424 6.19863 11.3656 6.34204 11.478ZM5.93358 12.7416C6.07699 12.852 5.94254 13.5009 5.84011 13.4072L5.11494 13.0058C5.11494 13.0058 5.78931 12.6319 5.93358 12.7416ZM5.24256 14.4383L4.51654 14.0408C4.51654 14.0408 5.19177 13.6638 5.33497 13.7747C5.48008 13.8851 5.34137 14.5335 5.24256 14.4383ZM5.10598 15.7181L4.38188 15.3205C4.38188 15.3205 5.05562 14.9452 5.19924 15.0537C5.34286 15.1632 5.20906 15.809 5.10577 15.7179L5.10598 15.7181ZM5.09254 11.9285C5.23659 12.0387 5.10064 12.6835 4.99949 12.5918L4.27305 12.1931C4.27305 12.1931 4.94955 11.8165 5.09254 11.9285ZM4.46277 12.9136C4.6049 13.0236 4.47024 13.6687 4.37015 13.577L3.64498 13.1795C3.64498 13.1795 4.31936 12.8019 4.46277 12.9136ZM3.16866 14.4591C3.16866 14.4591 3.84516 14.0808 3.98665 14.1928C4.13092 14.3023 3.99519 14.9487 3.89382 14.8551L3.16866 14.4591ZM3.72437 16.0779L3.00092 15.679C3.00092 15.679 3.67572 15.3046 3.81827 15.415C3.96232 15.525 3.82724 16.1708 3.72437 16.0779ZM3.20835 13.3623C3.35133 13.4701 3.21625 14.1174 3.11488 14.0239L2.39228 13.6251C2.39228 13.6251 3.06345 13.2508 3.20835 13.3623ZM2.55618 14.6657C2.6998 14.7752 2.56514 15.4254 2.46142 15.3297L1.73797 14.9329C1.73818 14.9329 2.41276 14.5592 2.55618 14.6657ZM1.60288 16.2097C1.60288 16.2097 2.27768 15.8358 2.42066 15.9458C2.56535 16.0548 2.4277 16.7032 2.32825 16.6091L1.60288 16.2097ZM2.89656 17.6701L2.17204 17.2722C2.17204 17.2722 2.84726 16.8955 2.99067 17.0061C3.13408 17.117 2.99708 17.7625 2.89656 17.6701ZM3.93543 18.5378L3.21091 18.1415C3.21091 18.1415 3.88635 17.7647 4.02976 17.874C4.17189 17.9827 4.03467 18.6335 3.93543 18.5378ZM4.26024 17.1836L3.53529 16.7844C3.53529 16.7844 4.21052 16.4105 4.35393 16.5176C4.49734 16.6282 4.3614 17.2744 4.26024 17.1836ZM5.22421 19.1222L4.50075 18.7248C4.50075 18.7248 5.17214 18.3489 5.31704 18.4591C5.46002 18.5701 5.32707 19.2135 5.22421 19.1222ZM5.57206 17.8747L4.84818 17.4775C4.84818 17.4775 5.52191 17.1035 5.6649 17.214C5.80788 17.3226 5.67471 17.9701 5.57206 17.8747ZM5.81193 16.6958L5.08784 16.2977C5.08784 16.2977 5.76178 15.9238 5.90647 16.0337C6.0501 16.1448 5.91288 16.7886 5.81193 16.6958ZM6.83053 18.9715L6.10623 18.5717C6.10623 18.5717 6.78038 18.1984 6.92486 18.3069C7.06998 18.4168 6.93254 19.0659 6.83053 18.9715ZM7.14424 17.7295L6.42036 17.3329C6.42036 17.3329 7.09537 16.9549 7.23878 17.0668C7.38006 17.1735 7.24433 17.8223 7.14424 17.7295ZM7.40674 16.4138L6.68264 16.0161C6.68264 16.0161 7.35701 15.6433 7.50149 15.7515C7.64383 15.862 7.50789 16.5077 7.40674 16.4138ZM8.42406 18.7386L7.69761 18.341C7.69761 18.341 8.37284 17.9646 8.51774 18.0742C8.65987 18.1874 8.52265 18.8345 8.42406 18.7386ZM8.66734 17.4101L7.94346 17.0105C7.94346 17.0105 8.61868 16.6357 8.76145 16.7446C8.90529 16.8561 8.76914 17.4999 8.66755 17.4099L8.66734 17.4101ZM8.92002 16.0461L8.19571 15.648C8.19571 15.648 8.86987 15.2734 9.01392 15.3825C9.1569 15.4953 9.0216 16.1397 8.92002 16.0461ZM10.0101 18.2134L9.28516 17.8195C9.28516 17.8195 9.96017 17.4434 10.1019 17.5527C10.2474 17.6622 10.1115 18.3077 10.0101 18.2134ZM10.2086 16.9047L9.48235 16.5093C9.48235 16.5093 10.1569 16.1338 10.2995 16.242C10.4467 16.3531 10.3089 17.0022 10.2086 16.9047ZM10.46 15.6224L9.73332 15.227C9.73332 15.227 10.4098 14.8491 10.5519 14.958C10.6951 15.0695 10.5596 15.7183 10.46 15.6224ZM11.5697 17.9369L10.845 17.5388C10.845 17.5388 11.5181 17.1625 11.663 17.2727C11.8081 17.3838 11.6715 18.0286 11.5697 17.9369ZM11.7673 16.7151L11.0422 16.3188C11.0422 16.3188 11.718 15.9398 11.8601 16.0526C12.0033 16.1595 11.868 16.8095 11.7673 16.7151ZM12.0059 15.4115L11.2799 15.0147C11.2799 15.0147 11.9551 14.6349 12.0998 14.7482C12.2432 14.8588 12.109 15.5037 12.0059 15.4115ZM13.01 17.9596L12.287 17.5621C12.287 17.5621 12.9609 17.1847 13.1043 17.2973C13.2479 17.406 13.1118 18.0524 13.01 17.9596ZM13.2492 16.6478L12.5228 16.2513C12.5228 16.2513 13.1993 15.873 13.3429 15.9851C13.485 16.096 13.3493 16.7411 13.2492 16.6478ZM13.5207 15.342L12.7953 14.9452C12.7953 14.9452 13.4707 14.5669 13.6144 14.6795C13.7591 14.7888 13.6218 15.4364 13.5205 15.342H13.5207ZM14.5201 17.9596L13.7949 17.5602C13.7949 17.5602 14.4693 17.1849 14.6125 17.2975C14.7557 17.406 14.6225 18.0524 14.5201 17.9596ZM14.752 16.7206L14.0286 16.3216C14.0286 16.3216 14.7021 15.9495 14.8453 16.0555C14.9891 16.167 14.8538 16.815 14.752 16.7206ZM15.0263 15.4524L14.3035 15.0554C14.3035 15.0554 14.9776 14.6806 15.1217 14.7888C15.2629 14.8988 15.1274 15.5461 15.0263 15.4524ZM15.9397 18.1467L15.2145 17.7451C15.2145 17.7451 15.8897 17.3728 16.0331 17.4838C16.178 17.5916 16.0427 18.2393 15.9397 18.1467ZM16.1958 16.9452L15.4712 16.5491C15.4712 16.5491 16.1473 16.1734 16.2894 16.2834C16.4343 16.3953 16.2943 17.0402 16.1958 16.9452ZM16.4725 15.7179L15.7461 15.3222C15.7461 15.3222 16.422 14.9461 16.5662 15.0534C16.709 15.163 16.5711 15.8087 16.4725 15.7177V15.7179ZM17.6023 17.2045L16.8784 16.811C16.8784 16.811 17.5524 16.434 17.6971 16.542C17.8394 16.6533 17.7037 17.2995 17.6023 17.2045Z" fill="black"/>
</svg>
