<svg width="32" height="32" viewBox="0 0 32 32" fill="none" xmlns="http://www.w3.org/2000/svg">
<path d="M31.6521 20.4692C27.1954 20.8759 23.253 19.1197 20.6437 16.3652C28.1477 12.4647 33.0043 6.17937 31.8235 4.55259C30.4522 2.667 21.9007 5.88359 16.0157 11.1337C10.1306 5.86511 1.56009 2.64852 0.188808 4.55259C-1.01106 6.21634 3.88365 12.4831 11.3685 16.3652C8.74026 19.0827 4.81688 20.8574 0.341172 20.4507C0.0173979 20.4322 -0.134966 20.8019 0.150717 21.0053C1.56009 22.0959 3.31228 22.6875 5.06447 22.706C4.47406 24.3143 4.43597 26.1259 5.02638 27.7712C5.14065 28.0854 5.55965 28.067 5.61679 27.7712C6.81666 23.39 9.92109 20.0625 15.2729 18.5096C15.5205 18.4357 15.749 18.3802 15.9776 18.2878C16.2252 18.3617 16.4537 18.4357 16.6823 18.5096C22.015 20.0625 25.1385 23.4085 26.3384 27.7712C26.4145 28.067 26.8335 28.0854 26.9478 27.7712C27.5382 26.1074 27.4811 24.3143 26.9097 22.706C28.681 22.6875 30.4332 22.0959 31.8235 21.0053C32.1092 20.8204 31.9568 20.4322 31.6521 20.4692ZM26.6812 6.91882C27.1002 6.62304 27.6906 6.73395 27.9763 7.14065C28.281 7.54734 28.1667 8.10193 27.7477 8.39771C27.3287 8.69349 26.7574 8.58257 26.4526 8.17587C26.1479 7.76918 26.2431 7.21459 26.6812 6.91882ZM5.54061 8.19436C5.23588 8.60105 4.66451 8.71197 4.24551 8.41619C3.82651 8.12042 3.71224 7.56583 4.01696 7.15914C4.30265 6.75244 4.89306 6.64152 5.31206 6.91882C5.73106 7.21459 5.82629 7.76918 5.54061 8.19436Z" fill="black"/>
</svg>
